G04*
G04 #@! TF.GenerationSoftware,Altium Limited,Altium Designer,24.4.1 (13)*
G04*
G04 Layer_Physical_Order=2*
G04 Layer_Color=16711680*
%FSLAX44Y44*%
%MOMM*%
G71*
G04*
G04 #@! TF.SameCoordinates,887ABC83-426C-49B1-83FD-6CCA0DC503B9*
G04*
G04*
G04 #@! TF.FilePolarity,Positive*
G04*
G01*
G75*
%ADD10C,0.3000*%
%ADD14C,0.1500*%
%ADD15O,1.0000X1.8000*%
%ADD16C,1.8796*%
%ADD17C,0.4000*%
%ADD18C,1.0000*%
%ADD19R,0.4000X0.7000*%
%ADD20R,0.9000X0.6000*%
%ADD21C,0.4000*%
D10*
X45000Y142500D02*
X52000D01*
X99500D02*
X105000D01*
D14*
X15000Y135000D02*
Y145000D01*
X22500Y147500D02*
X27500Y142500D01*
X22500Y147500D02*
Y152500D01*
X27500Y142500D02*
X35000D01*
X85500Y133000D02*
X90000D01*
X78000D02*
X85500D01*
X15000Y160000D02*
X22500Y152500D01*
X35000Y142500D02*
X39500Y138000D01*
Y132500D02*
Y138000D01*
X15000Y185000D02*
X45000D01*
X52000Y178000D01*
Y152000D02*
Y178000D01*
X99500Y118300D02*
Y132500D01*
X96200Y115000D02*
X99500Y118300D01*
X121600Y115000D02*
Y135900D01*
X30500Y160500D02*
X40000Y170000D01*
X30500Y152500D02*
Y160500D01*
X32500Y107500D02*
Y125000D01*
X30500Y127000D02*
Y132500D01*
Y127000D02*
X32500Y125000D01*
X105000Y152500D02*
X121600Y135900D01*
X99500Y152500D02*
X105000D01*
X90000Y133000D02*
X90500Y132500D01*
X90000Y152000D02*
X90500Y152500D01*
X78000Y152000D02*
X90000D01*
X40000Y133000D02*
X52000D01*
X39500Y132500D02*
X40000Y133000D01*
X32500Y107500D02*
X40000Y100000D01*
X55800D01*
X70800Y115000D01*
X90000Y132000D02*
X90500Y132500D01*
X90000Y153000D02*
X90500Y152500D01*
X40000Y152000D02*
X52000D01*
X39500Y152500D02*
X40000Y152000D01*
D15*
Y170000D02*
D03*
X65000D02*
D03*
X90000D02*
D03*
D16*
X20000Y115000D02*
D03*
X45400D02*
D03*
X70800D02*
D03*
X96200D02*
D03*
X121600D02*
D03*
D17*
X15000Y145000D02*
D03*
X85500Y133000D02*
D03*
X105000Y142500D02*
D03*
X45000D02*
D03*
D18*
X15000Y135000D02*
D03*
Y185000D02*
D03*
Y160000D02*
D03*
D19*
X30500Y132500D02*
D03*
X39500D02*
D03*
X90500Y152500D02*
D03*
X99500D02*
D03*
X90500Y132500D02*
D03*
X99500D02*
D03*
X30500Y152500D02*
D03*
X39500D02*
D03*
X90500Y142500D02*
D03*
X99500D02*
D03*
D20*
X78000Y133000D02*
D03*
X52000Y152000D02*
D03*
Y142500D02*
D03*
Y133000D02*
D03*
X78000Y152000D02*
D03*
Y142500D02*
D03*
D21*
X65000D02*
Y170000D01*
X47900Y115000D02*
X65000Y132100D01*
X45400Y115000D02*
X47900D01*
X65000Y132100D02*
Y142500D01*
X78000D01*
X90500D01*
M02*
