G04*
G04 #@! TF.GenerationSoftware,Altium Limited,Altium Designer,25.1.2 (22)*
G04*
G04 Layer_Physical_Order=1*
G04 Layer_Color=255*
%FSLAX44Y44*%
%MOMM*%
G71*
G04*
G04 #@! TF.SameCoordinates,FE34C129-C983-41F3-B3ED-8F63A89725A6*
G04*
G04*
G04 #@! TF.FilePolarity,Positive*
G04*
G01*
G75*
%ADD14C,0.1500*%
%ADD15O,1.0000X1.8000*%
%ADD16C,1.8796*%
%ADD17C,0.4000*%
G36*
X120000Y198216D02*
Y198211D01*
X123553Y197861D01*
X126969Y196824D01*
X130117Y195142D01*
X132877Y192877D01*
X135142Y190117D01*
X136825Y186969D01*
X137861Y183553D01*
X138211Y180000D01*
X138216D01*
Y115000D01*
X138216Y115000D01*
X138211D01*
X137861Y111447D01*
X136825Y108031D01*
X135142Y104883D01*
X132877Y102123D01*
X130117Y99858D01*
X126969Y98175D01*
X123553Y97139D01*
X120000Y96789D01*
Y96784D01*
X20000Y96784D01*
Y96789D01*
X16447Y97139D01*
X13031Y98175D01*
X9883Y99858D01*
X7123Y102123D01*
X4858Y104883D01*
X3176Y108031D01*
X2139Y111447D01*
X1789Y115000D01*
X1784D01*
Y180000D01*
X1789D01*
X2139Y183553D01*
X3176Y186969D01*
X4858Y190117D01*
X7123Y192877D01*
X9883Y195142D01*
X13031Y196824D01*
X16447Y197861D01*
X20000Y198211D01*
Y198216D01*
X120000D01*
X120000Y198216D01*
D02*
G37*
%LPC*%
G36*
X91270Y179865D02*
Y171270D01*
X96117D01*
Y174000D01*
X95652Y176341D01*
X94326Y178326D01*
X92341Y179652D01*
X91270Y179865D01*
D02*
G37*
G36*
X88730D02*
X87659Y179652D01*
X85674Y178326D01*
X84348Y176341D01*
X83883Y174000D01*
Y171270D01*
X88730D01*
Y179865D01*
D02*
G37*
G36*
X96117Y168730D02*
X91270D01*
Y160135D01*
X92341Y160348D01*
X94326Y161674D01*
X95652Y163659D01*
X96117Y166000D01*
Y168730D01*
D02*
G37*
G36*
X88730D02*
X83883D01*
Y166000D01*
X84348Y163659D01*
X85674Y161674D01*
X87659Y160348D01*
X88730Y160135D01*
Y168730D01*
D02*
G37*
G36*
X65000Y180117D02*
X62659Y179652D01*
X60674Y178326D01*
X59348Y176341D01*
X58882Y174000D01*
Y166000D01*
X59348Y163659D01*
X60674Y161674D01*
X62659Y160348D01*
X65000Y159882D01*
X67341Y160348D01*
X69326Y161674D01*
X70652Y163659D01*
X71118Y166000D01*
Y174000D01*
X70652Y176341D01*
X69326Y178326D01*
X67341Y179652D01*
X65000Y180117D01*
D02*
G37*
G36*
X40000D02*
X37659Y179652D01*
X35674Y178326D01*
X34348Y176341D01*
X33883Y174000D01*
Y166000D01*
X34348Y163659D01*
X35674Y161674D01*
X37659Y160348D01*
X40000Y159882D01*
X42341Y160348D01*
X44326Y161674D01*
X45652Y163659D01*
X46118Y166000D01*
Y174000D01*
X45652Y176341D01*
X44326Y178326D01*
X42341Y179652D01*
X40000Y180117D01*
D02*
G37*
G36*
X15597Y148000D02*
X14403D01*
X13301Y147543D01*
X12457Y146699D01*
X12000Y145597D01*
Y144403D01*
X12457Y143301D01*
X13301Y142457D01*
X14403Y142000D01*
X15477D01*
X25738Y131738D01*
X26317Y131351D01*
X27000Y131216D01*
X83042D01*
X83801Y130457D01*
X84903Y130000D01*
X86097D01*
X87199Y130457D01*
X88043Y131301D01*
X88500Y132403D01*
Y133597D01*
X88043Y134699D01*
X87199Y135543D01*
X86097Y136000D01*
X84903D01*
X83801Y135543D01*
X83042Y134784D01*
X27739D01*
X18000Y144523D01*
Y145597D01*
X17543Y146699D01*
X16699Y147543D01*
X15597Y148000D01*
D02*
G37*
G36*
X21369Y125398D02*
X21270D01*
Y116270D01*
X30398D01*
Y116369D01*
X29689Y119014D01*
X28321Y121384D01*
X26384Y123321D01*
X24014Y124689D01*
X21369Y125398D01*
D02*
G37*
G36*
X18730D02*
X18631D01*
X15986Y124689D01*
X13615Y123321D01*
X11680Y121384D01*
X10311Y119014D01*
X9602Y116369D01*
Y116270D01*
X18730D01*
Y125398D01*
D02*
G37*
G36*
X122969D02*
X120231D01*
X117586Y124689D01*
X115216Y123321D01*
X113280Y121384D01*
X111911Y119014D01*
X111202Y116369D01*
Y113631D01*
X111911Y110986D01*
X113280Y108616D01*
X115216Y106679D01*
X117586Y105311D01*
X120231Y104602D01*
X122969D01*
X125613Y105311D01*
X127985Y106679D01*
X129921Y108616D01*
X131289Y110986D01*
X131998Y113631D01*
Y116369D01*
X131289Y119014D01*
X129921Y121384D01*
X127985Y123321D01*
X125613Y124689D01*
X122969Y125398D01*
D02*
G37*
G36*
X97569D02*
X94831D01*
X92186Y124689D01*
X89816Y123321D01*
X87880Y121384D01*
X86511Y119014D01*
X85802Y116369D01*
Y113631D01*
X86511Y110986D01*
X87880Y108616D01*
X89816Y106679D01*
X92186Y105311D01*
X94831Y104602D01*
X97569D01*
X100213Y105311D01*
X102584Y106679D01*
X104521Y108616D01*
X105889Y110986D01*
X106598Y113631D01*
Y116369D01*
X105889Y119014D01*
X104521Y121384D01*
X102584Y123321D01*
X100213Y124689D01*
X97569Y125398D01*
D02*
G37*
G36*
X72169D02*
X69431D01*
X66786Y124689D01*
X64415Y123321D01*
X62480Y121384D01*
X61111Y119014D01*
X60402Y116369D01*
Y113631D01*
X61111Y110986D01*
X62480Y108616D01*
X64415Y106679D01*
X66786Y105311D01*
X69431Y104602D01*
X72169D01*
X74813Y105311D01*
X77185Y106679D01*
X79120Y108616D01*
X80489Y110986D01*
X81198Y113631D01*
Y116369D01*
X80489Y119014D01*
X79120Y121384D01*
X77185Y123321D01*
X74813Y124689D01*
X72169Y125398D01*
D02*
G37*
G36*
X46769D02*
X44031D01*
X41386Y124689D01*
X39016Y123321D01*
X37080Y121384D01*
X35711Y119014D01*
X35002Y116369D01*
Y113631D01*
X35711Y110986D01*
X37080Y108616D01*
X39016Y106679D01*
X41386Y105311D01*
X44031Y104602D01*
X46769D01*
X49413Y105311D01*
X51785Y106679D01*
X53720Y108616D01*
X55089Y110986D01*
X55798Y113631D01*
Y116369D01*
X55089Y119014D01*
X53720Y121384D01*
X51785Y123321D01*
X49413Y124689D01*
X46769Y125398D01*
D02*
G37*
G36*
X30398Y113730D02*
X21270D01*
Y104602D01*
X21369D01*
X24014Y105311D01*
X26384Y106679D01*
X28321Y108616D01*
X29689Y110986D01*
X30398Y113631D01*
Y113730D01*
D02*
G37*
G36*
X18730D02*
X9602D01*
Y113631D01*
X10311Y110986D01*
X11680Y108616D01*
X13615Y106679D01*
X15986Y105311D01*
X18631Y104602D01*
X18730D01*
Y113730D01*
D02*
G37*
%LPD*%
D14*
X15000Y145000D02*
X27000Y133000D01*
X85500D01*
D15*
X40000Y170000D02*
D03*
X65000D02*
D03*
X90000D02*
D03*
D16*
X20000Y115000D02*
D03*
X45400D02*
D03*
X70800D02*
D03*
X96200D02*
D03*
X121600D02*
D03*
D17*
X15000Y145000D02*
D03*
X85500Y133000D02*
D03*
X105000Y142500D02*
D03*
X45000D02*
D03*
M02*
