G04*
G04 #@! TF.GenerationSoftware,Altium Limited,Altium Designer,23.5.1 (21)*
G04*
G04 Layer_Color=32896*
%FSLAX44Y44*%
%MOMM*%
G71*
G04*
G04 #@! TF.SameCoordinates,A6BFF210-3E1A-4D33-989E-14755B46CC80*
G04*
G04*
G04 #@! TF.FilePolarity,Positive*
G04*
G01*
G75*
%ADD11C,0.0200*%
%ADD25C,0.2000*%
G36*
X84261Y194791D02*
X84531Y194756D01*
X84656Y194736D01*
X84774Y194708D01*
X84885Y194687D01*
X84989Y194659D01*
X85079Y194632D01*
X85162Y194604D01*
X85232Y194576D01*
X85294Y194555D01*
X85343Y194534D01*
X85378Y194521D01*
X85398Y194514D01*
X85405Y194507D01*
X85634Y194389D01*
X85731Y194320D01*
X85828Y194250D01*
X85918Y194188D01*
X86002Y194118D01*
X86078Y194049D01*
X86140Y193987D01*
X86203Y193924D01*
X86258Y193869D01*
X86300Y193820D01*
X86334Y193772D01*
X86369Y193737D01*
X86390Y193709D01*
X86397Y193696D01*
X86404Y193689D01*
X86466Y193585D01*
X86529Y193480D01*
X86632Y193252D01*
X86723Y193016D01*
X86799Y192794D01*
X86834Y192697D01*
X86854Y192600D01*
X86882Y192517D01*
X86896Y192440D01*
X86910Y192378D01*
X86924Y192336D01*
X86931Y192302D01*
Y192295D01*
X85239Y192010D01*
X85225Y192121D01*
X85204Y192232D01*
X85176Y192330D01*
X85149Y192420D01*
X85114Y192510D01*
X85079Y192586D01*
X85045Y192655D01*
X85010Y192718D01*
X84975Y192773D01*
X84948Y192822D01*
X84913Y192863D01*
X84892Y192898D01*
X84864Y192926D01*
X84851Y192947D01*
X84844Y192953D01*
X84837Y192960D01*
X84774Y193016D01*
X84705Y193071D01*
X84566Y193155D01*
X84427Y193210D01*
X84303Y193252D01*
X84192Y193279D01*
X84143Y193286D01*
X84102D01*
X84074Y193293D01*
X84025D01*
X83852Y193279D01*
X83706Y193245D01*
X83575Y193203D01*
X83464Y193148D01*
X83373Y193092D01*
X83311Y193051D01*
X83270Y193016D01*
X83256Y193002D01*
X83159Y192884D01*
X83089Y192759D01*
X83034Y192635D01*
X82999Y192510D01*
X82978Y192399D01*
X82971Y192357D01*
Y192316D01*
X82964Y192281D01*
Y192253D01*
Y192239D01*
Y192232D01*
X82971Y192128D01*
X82978Y192031D01*
X82999Y191934D01*
X83027Y191851D01*
X83089Y191691D01*
X83159Y191560D01*
X83200Y191504D01*
X83235Y191456D01*
X83270Y191414D01*
X83297Y191380D01*
X83325Y191352D01*
X83346Y191331D01*
X83353Y191324D01*
X83360Y191317D01*
X83436Y191255D01*
X83519Y191206D01*
X83609Y191164D01*
X83706Y191123D01*
X83893Y191067D01*
X84081Y191033D01*
X84164Y191019D01*
X84247Y191012D01*
X84317Y191005D01*
X84379Y190998D01*
X84504D01*
X84705Y189500D01*
X84531Y189549D01*
X84372Y189583D01*
X84226Y189604D01*
X84102Y189625D01*
X84004Y189632D01*
X83963D01*
X83928Y189639D01*
X83866D01*
X83769Y189632D01*
X83672Y189618D01*
X83581Y189604D01*
X83498Y189577D01*
X83346Y189507D01*
X83214Y189438D01*
X83103Y189362D01*
X83061Y189327D01*
X83027Y189292D01*
X82992Y189265D01*
X82971Y189251D01*
X82964Y189237D01*
X82957Y189230D01*
X82888Y189154D01*
X82833Y189063D01*
X82784Y188973D01*
X82743Y188883D01*
X82673Y188703D01*
X82632Y188523D01*
X82611Y188446D01*
X82604Y188370D01*
X82597Y188301D01*
X82590Y188245D01*
X82583Y188197D01*
Y188155D01*
Y188134D01*
Y188127D01*
X82590Y187996D01*
X82597Y187864D01*
X82618Y187746D01*
X82645Y187635D01*
X82673Y187531D01*
X82708Y187434D01*
X82743Y187351D01*
X82777Y187267D01*
X82819Y187198D01*
X82853Y187136D01*
X82888Y187087D01*
X82916Y187039D01*
X82943Y187004D01*
X82964Y186983D01*
X82971Y186969D01*
X82978Y186962D01*
X83055Y186886D01*
X83131Y186824D01*
X83207Y186761D01*
X83290Y186713D01*
X83373Y186671D01*
X83450Y186637D01*
X83602Y186588D01*
X83734Y186553D01*
X83790Y186546D01*
X83838Y186539D01*
X83880Y186532D01*
X83935D01*
X84032Y186539D01*
X84122Y186546D01*
X84296Y186588D01*
X84448Y186643D01*
X84580Y186713D01*
X84691Y186775D01*
X84733Y186803D01*
X84767Y186831D01*
X84795Y186851D01*
X84816Y186872D01*
X84830Y186879D01*
X84837Y186886D01*
X84899Y186956D01*
X84961Y187032D01*
X85058Y187205D01*
X85142Y187378D01*
X85197Y187545D01*
X85225Y187621D01*
X85239Y187697D01*
X85260Y187760D01*
X85267Y187822D01*
X85280Y187871D01*
Y187905D01*
X85287Y187926D01*
Y187933D01*
X87069Y187711D01*
X87035Y187489D01*
X86986Y187281D01*
X86931Y187080D01*
X86861Y186900D01*
X86778Y186727D01*
X86695Y186560D01*
X86612Y186415D01*
X86522Y186283D01*
X86438Y186165D01*
X86355Y186054D01*
X86279Y185964D01*
X86216Y185895D01*
X86161Y185832D01*
X86112Y185791D01*
X86085Y185763D01*
X86078Y185756D01*
X85911Y185624D01*
X85738Y185506D01*
X85558Y185409D01*
X85378Y185326D01*
X85197Y185250D01*
X85017Y185187D01*
X84844Y185139D01*
X84677Y185104D01*
X84518Y185069D01*
X84379Y185049D01*
X84247Y185028D01*
X84136Y185021D01*
X84046Y185014D01*
X83977Y185007D01*
X83921D01*
X83672Y185014D01*
X83429Y185049D01*
X83200Y185090D01*
X82985Y185146D01*
X82777Y185215D01*
X82590Y185291D01*
X82416Y185368D01*
X82257Y185451D01*
X82118Y185534D01*
X81987Y185617D01*
X81883Y185686D01*
X81792Y185756D01*
X81723Y185811D01*
X81668Y185860D01*
X81640Y185888D01*
X81626Y185895D01*
X81460Y186068D01*
X81321Y186241D01*
X81196Y186422D01*
X81085Y186609D01*
X81002Y186789D01*
X80926Y186969D01*
X80863Y187143D01*
X80815Y187309D01*
X80773Y187462D01*
X80745Y187600D01*
X80725Y187732D01*
X80711Y187836D01*
X80704Y187926D01*
X80697Y187996D01*
Y188037D01*
Y188051D01*
X80704Y188211D01*
X80718Y188363D01*
X80745Y188509D01*
X80773Y188647D01*
X80808Y188779D01*
X80849Y188904D01*
X80898Y189015D01*
X80940Y189119D01*
X80988Y189209D01*
X81037Y189292D01*
X81078Y189369D01*
X81113Y189424D01*
X81141Y189473D01*
X81168Y189507D01*
X81182Y189528D01*
X81189Y189535D01*
X81286Y189646D01*
X81390Y189743D01*
X81494Y189840D01*
X81605Y189916D01*
X81709Y189993D01*
X81820Y190055D01*
X81931Y190110D01*
X82035Y190159D01*
X82132Y190201D01*
X82222Y190235D01*
X82299Y190270D01*
X82368Y190291D01*
X82430Y190305D01*
X82472Y190319D01*
X82500Y190326D01*
X82507D01*
X82382Y190395D01*
X82264Y190471D01*
X82153Y190547D01*
X82049Y190631D01*
X81952Y190707D01*
X81862Y190790D01*
X81702Y190956D01*
X81571Y191130D01*
X81460Y191296D01*
X81369Y191463D01*
X81293Y191615D01*
X81238Y191768D01*
X81196Y191907D01*
X81161Y192024D01*
X81141Y192135D01*
X81127Y192225D01*
X81120Y192288D01*
Y192330D01*
Y192343D01*
X81127Y192510D01*
X81148Y192669D01*
X81182Y192822D01*
X81224Y192967D01*
X81279Y193106D01*
X81335Y193238D01*
X81397Y193363D01*
X81460Y193474D01*
X81522Y193578D01*
X81584Y193668D01*
X81640Y193744D01*
X81695Y193813D01*
X81737Y193869D01*
X81772Y193904D01*
X81792Y193931D01*
X81799Y193938D01*
X81959Y194091D01*
X82125Y194223D01*
X82306Y194340D01*
X82486Y194438D01*
X82666Y194521D01*
X82846Y194597D01*
X83020Y194652D01*
X83193Y194694D01*
X83353Y194736D01*
X83498Y194756D01*
X83630Y194777D01*
X83748Y194791D01*
X83838Y194798D01*
X83907Y194805D01*
X84115D01*
X84261Y194791D01*
D02*
G37*
G36*
X39577D02*
X39848Y194756D01*
X39972Y194736D01*
X40090Y194708D01*
X40201Y194687D01*
X40305Y194659D01*
X40395Y194632D01*
X40479Y194604D01*
X40548Y194576D01*
X40610Y194555D01*
X40659Y194534D01*
X40693Y194521D01*
X40714Y194514D01*
X40721Y194507D01*
X40950Y194389D01*
X41047Y194320D01*
X41144Y194250D01*
X41234Y194188D01*
X41318Y194118D01*
X41394Y194049D01*
X41456Y193987D01*
X41519Y193924D01*
X41574Y193869D01*
X41616Y193820D01*
X41650Y193772D01*
X41685Y193737D01*
X41706Y193709D01*
X41713Y193696D01*
X41720Y193689D01*
X41782Y193585D01*
X41845Y193480D01*
X41949Y193252D01*
X42039Y193016D01*
X42115Y192794D01*
X42150Y192697D01*
X42171Y192600D01*
X42198Y192517D01*
X42212Y192440D01*
X42226Y192378D01*
X42240Y192336D01*
X42247Y192302D01*
Y192295D01*
X40555Y192010D01*
X40541Y192121D01*
X40520Y192232D01*
X40492Y192330D01*
X40465Y192420D01*
X40430Y192510D01*
X40395Y192586D01*
X40361Y192655D01*
X40326Y192718D01*
X40291Y192773D01*
X40264Y192822D01*
X40229Y192863D01*
X40208Y192898D01*
X40180Y192926D01*
X40167Y192947D01*
X40160Y192953D01*
X40153Y192960D01*
X40090Y193016D01*
X40021Y193071D01*
X39882Y193155D01*
X39743Y193210D01*
X39619Y193252D01*
X39508Y193279D01*
X39459Y193286D01*
X39418D01*
X39390Y193293D01*
X39341D01*
X39168Y193279D01*
X39022Y193245D01*
X38891Y193203D01*
X38780Y193148D01*
X38689Y193092D01*
X38627Y193051D01*
X38586Y193016D01*
X38572Y193002D01*
X38475Y192884D01*
X38405Y192759D01*
X38350Y192635D01*
X38315Y192510D01*
X38294Y192399D01*
X38287Y192357D01*
Y192316D01*
X38280Y192281D01*
Y192253D01*
Y192239D01*
Y192232D01*
X38287Y192128D01*
X38294Y192031D01*
X38315Y191934D01*
X38343Y191851D01*
X38405Y191691D01*
X38475Y191560D01*
X38516Y191504D01*
X38551Y191456D01*
X38586Y191414D01*
X38613Y191380D01*
X38641Y191352D01*
X38662Y191331D01*
X38669Y191324D01*
X38676Y191317D01*
X38752Y191255D01*
X38835Y191206D01*
X38925Y191164D01*
X39022Y191123D01*
X39209Y191067D01*
X39397Y191033D01*
X39480Y191019D01*
X39563Y191012D01*
X39632Y191005D01*
X39695Y190998D01*
X39820D01*
X40021Y189500D01*
X39848Y189549D01*
X39688Y189583D01*
X39542Y189604D01*
X39418Y189625D01*
X39320Y189632D01*
X39279D01*
X39244Y189639D01*
X39182D01*
X39085Y189632D01*
X38988Y189618D01*
X38898Y189604D01*
X38814Y189577D01*
X38662Y189507D01*
X38530Y189438D01*
X38419Y189362D01*
X38377Y189327D01*
X38343Y189292D01*
X38308Y189265D01*
X38287Y189251D01*
X38280Y189237D01*
X38273Y189230D01*
X38204Y189154D01*
X38149Y189063D01*
X38100Y188973D01*
X38059Y188883D01*
X37989Y188703D01*
X37947Y188523D01*
X37927Y188446D01*
X37920Y188370D01*
X37913Y188301D01*
X37906Y188245D01*
X37899Y188197D01*
Y188155D01*
Y188134D01*
Y188127D01*
X37906Y187996D01*
X37913Y187864D01*
X37934Y187746D01*
X37961Y187635D01*
X37989Y187531D01*
X38024Y187434D01*
X38059Y187351D01*
X38093Y187267D01*
X38135Y187198D01*
X38169Y187136D01*
X38204Y187087D01*
X38232Y187039D01*
X38260Y187004D01*
X38280Y186983D01*
X38287Y186969D01*
X38294Y186962D01*
X38370Y186886D01*
X38447Y186824D01*
X38523Y186761D01*
X38606Y186713D01*
X38689Y186671D01*
X38766Y186637D01*
X38918Y186588D01*
X39050Y186553D01*
X39106Y186546D01*
X39154Y186539D01*
X39196Y186532D01*
X39251D01*
X39348Y186539D01*
X39438Y186546D01*
X39612Y186588D01*
X39764Y186643D01*
X39896Y186713D01*
X40007Y186775D01*
X40049Y186803D01*
X40083Y186831D01*
X40111Y186851D01*
X40132Y186872D01*
X40146Y186879D01*
X40153Y186886D01*
X40215Y186956D01*
X40277Y187032D01*
X40374Y187205D01*
X40458Y187378D01*
X40513Y187545D01*
X40541Y187621D01*
X40555Y187697D01*
X40576Y187760D01*
X40582Y187822D01*
X40596Y187871D01*
Y187905D01*
X40603Y187926D01*
Y187933D01*
X42385Y187711D01*
X42351Y187489D01*
X42302Y187281D01*
X42247Y187080D01*
X42177Y186900D01*
X42094Y186727D01*
X42011Y186560D01*
X41928Y186415D01*
X41838Y186283D01*
X41754Y186165D01*
X41671Y186054D01*
X41595Y185964D01*
X41533Y185895D01*
X41477Y185832D01*
X41428Y185791D01*
X41401Y185763D01*
X41394Y185756D01*
X41227Y185624D01*
X41054Y185506D01*
X40874Y185409D01*
X40693Y185326D01*
X40513Y185250D01*
X40333Y185187D01*
X40160Y185139D01*
X39993Y185104D01*
X39834Y185069D01*
X39695Y185049D01*
X39563Y185028D01*
X39452Y185021D01*
X39362Y185014D01*
X39293Y185007D01*
X39237D01*
X38988Y185014D01*
X38745Y185049D01*
X38516Y185090D01*
X38301Y185146D01*
X38093Y185215D01*
X37906Y185291D01*
X37733Y185368D01*
X37573Y185451D01*
X37434Y185534D01*
X37303Y185617D01*
X37199Y185686D01*
X37109Y185756D01*
X37039Y185811D01*
X36984Y185860D01*
X36956Y185888D01*
X36942Y185895D01*
X36776Y186068D01*
X36637Y186241D01*
X36512Y186422D01*
X36401Y186609D01*
X36318Y186789D01*
X36242Y186969D01*
X36179Y187143D01*
X36131Y187309D01*
X36089Y187462D01*
X36061Y187600D01*
X36041Y187732D01*
X36027Y187836D01*
X36020Y187926D01*
X36013Y187996D01*
Y188037D01*
Y188051D01*
X36020Y188211D01*
X36034Y188363D01*
X36061Y188509D01*
X36089Y188647D01*
X36124Y188779D01*
X36165Y188904D01*
X36214Y189015D01*
X36256Y189119D01*
X36304Y189209D01*
X36353Y189292D01*
X36394Y189369D01*
X36429Y189424D01*
X36457Y189473D01*
X36484Y189507D01*
X36498Y189528D01*
X36505Y189535D01*
X36602Y189646D01*
X36706Y189743D01*
X36810Y189840D01*
X36921Y189916D01*
X37025Y189993D01*
X37136Y190055D01*
X37247Y190110D01*
X37351Y190159D01*
X37448Y190201D01*
X37538Y190235D01*
X37615Y190270D01*
X37684Y190291D01*
X37746Y190305D01*
X37788Y190319D01*
X37816Y190326D01*
X37823D01*
X37698Y190395D01*
X37580Y190471D01*
X37469Y190547D01*
X37365Y190631D01*
X37268Y190707D01*
X37178Y190790D01*
X37018Y190956D01*
X36887Y191130D01*
X36776Y191296D01*
X36686Y191463D01*
X36609Y191615D01*
X36554Y191768D01*
X36512Y191907D01*
X36477Y192024D01*
X36457Y192135D01*
X36443Y192225D01*
X36436Y192288D01*
Y192330D01*
Y192343D01*
X36443Y192510D01*
X36464Y192669D01*
X36498Y192822D01*
X36540Y192967D01*
X36595Y193106D01*
X36651Y193238D01*
X36713Y193363D01*
X36776Y193474D01*
X36838Y193578D01*
X36900Y193668D01*
X36956Y193744D01*
X37011Y193813D01*
X37053Y193869D01*
X37088Y193904D01*
X37109Y193931D01*
X37115Y193938D01*
X37275Y194091D01*
X37441Y194223D01*
X37622Y194340D01*
X37802Y194438D01*
X37982Y194521D01*
X38163Y194597D01*
X38336Y194652D01*
X38509Y194694D01*
X38669Y194736D01*
X38814Y194756D01*
X38946Y194777D01*
X39064Y194791D01*
X39154Y194798D01*
X39223Y194805D01*
X39431D01*
X39577Y194791D01*
D02*
G37*
G36*
X121484Y188751D02*
X123987Y185173D01*
X121838D01*
X120409Y187323D01*
X118995Y185173D01*
X116741D01*
X119313Y188828D01*
X116956Y192128D01*
X119105D01*
X120409Y190215D01*
X121636Y192128D01*
X123883D01*
X121484Y188751D01*
D02*
G37*
G36*
X107470Y185173D02*
X105674D01*
Y192725D01*
X103781Y185173D01*
X101916D01*
X100015Y192725D01*
X100009Y185173D01*
X98213D01*
Y194770D01*
X101125D01*
X102838Y188218D01*
X104571Y194770D01*
X107470D01*
Y185173D01*
D02*
G37*
G36*
X115853Y187732D02*
X112240D01*
Y189570D01*
X115853D01*
Y187732D01*
D02*
G37*
G36*
X79366D02*
X75753D01*
Y189570D01*
X79366D01*
Y187732D01*
D02*
G37*
G36*
X56281D02*
X52669D01*
Y189570D01*
X56281D01*
Y187732D01*
D02*
G37*
G36*
X96292Y189646D02*
Y189355D01*
X96285Y189077D01*
X96271Y188821D01*
X96264Y188585D01*
X96250Y188370D01*
X96229Y188169D01*
X96216Y187989D01*
X96195Y187829D01*
X96181Y187684D01*
X96167Y187559D01*
X96146Y187455D01*
X96132Y187365D01*
X96118Y187302D01*
X96112Y187254D01*
X96105Y187219D01*
Y187212D01*
X96042Y187004D01*
X95966Y186810D01*
X95876Y186630D01*
X95786Y186470D01*
X95744Y186401D01*
X95702Y186331D01*
X95661Y186276D01*
X95626Y186234D01*
X95605Y186193D01*
X95585Y186165D01*
X95571Y186151D01*
X95564Y186144D01*
X95397Y185964D01*
X95210Y185804D01*
X95023Y185659D01*
X94843Y185541D01*
X94759Y185492D01*
X94683Y185444D01*
X94614Y185409D01*
X94558Y185375D01*
X94510Y185354D01*
X94468Y185333D01*
X94447Y185326D01*
X94440Y185319D01*
X94302Y185264D01*
X94149Y185215D01*
X93983Y185173D01*
X93816Y185139D01*
X93470Y185083D01*
X93296Y185062D01*
X93130Y185049D01*
X92970Y185035D01*
X92825Y185021D01*
X92693Y185014D01*
X92582D01*
X92485Y185007D01*
X92353D01*
X92145Y185014D01*
X91944Y185021D01*
X91764Y185035D01*
X91584Y185056D01*
X91424Y185076D01*
X91271Y185097D01*
X91133Y185125D01*
X91001Y185153D01*
X90890Y185180D01*
X90793Y185208D01*
X90710Y185229D01*
X90634Y185250D01*
X90578Y185270D01*
X90543Y185284D01*
X90516Y185298D01*
X90509D01*
X90377Y185354D01*
X90259Y185416D01*
X90141Y185478D01*
X90037Y185541D01*
X89933Y185610D01*
X89843Y185673D01*
X89760Y185735D01*
X89684Y185797D01*
X89614Y185853D01*
X89552Y185908D01*
X89503Y185957D01*
X89462Y185992D01*
X89427Y186026D01*
X89406Y186054D01*
X89392Y186068D01*
X89385Y186075D01*
X89240Y186269D01*
X89115Y186470D01*
X89018Y186671D01*
X88935Y186865D01*
X88900Y186949D01*
X88872Y187032D01*
X88851Y187101D01*
X88838Y187164D01*
X88817Y187212D01*
X88810Y187247D01*
X88803Y187274D01*
Y187281D01*
X88775Y187427D01*
X88748Y187593D01*
X88727Y187774D01*
X88713Y187961D01*
X88692Y188162D01*
X88685Y188370D01*
X88671Y188571D01*
X88664Y188772D01*
X88657Y188959D01*
X88650Y189140D01*
Y189299D01*
X88644Y189445D01*
Y189500D01*
Y189556D01*
Y189604D01*
Y189646D01*
Y189681D01*
Y189701D01*
Y189715D01*
Y189722D01*
Y194770D01*
X90578D01*
Y189459D01*
Y189251D01*
X90585Y189063D01*
Y188883D01*
X90592Y188724D01*
X90599Y188571D01*
X90606Y188439D01*
X90613Y188321D01*
X90620Y188211D01*
X90634Y188120D01*
X90640Y188037D01*
X90647Y187975D01*
X90654Y187919D01*
X90661Y187878D01*
Y187843D01*
X90668Y187829D01*
Y187822D01*
X90689Y187732D01*
X90717Y187649D01*
X90779Y187489D01*
X90862Y187351D01*
X90953Y187226D01*
X91036Y187129D01*
X91105Y187059D01*
X91133Y187032D01*
X91154Y187011D01*
X91167Y187004D01*
X91174Y186997D01*
X91258Y186942D01*
X91348Y186886D01*
X91542Y186803D01*
X91750Y186747D01*
X91951Y186706D01*
X92048Y186692D01*
X92131Y186685D01*
X92215Y186671D01*
X92277D01*
X92339Y186664D01*
X92416D01*
X92561Y186671D01*
X92707Y186678D01*
X92832Y186699D01*
X92956Y186720D01*
X93074Y186747D01*
X93178Y186775D01*
X93275Y186810D01*
X93359Y186845D01*
X93442Y186872D01*
X93504Y186907D01*
X93567Y186935D01*
X93615Y186962D01*
X93650Y186983D01*
X93678Y187004D01*
X93692Y187011D01*
X93699Y187018D01*
X93782Y187087D01*
X93858Y187164D01*
X93927Y187240D01*
X93990Y187316D01*
X94087Y187469D01*
X94170Y187621D01*
X94226Y187753D01*
X94246Y187815D01*
X94260Y187864D01*
X94274Y187905D01*
X94281Y187933D01*
X94288Y187954D01*
Y187961D01*
X94302Y188037D01*
X94309Y188134D01*
X94323Y188245D01*
X94330Y188370D01*
X94336Y188495D01*
X94343Y188633D01*
X94350Y188904D01*
Y189036D01*
Y189160D01*
X94357Y189272D01*
Y189369D01*
Y189452D01*
Y189514D01*
Y189556D01*
Y189570D01*
Y194770D01*
X96292D01*
Y189646D01*
D02*
G37*
G36*
X111228Y185173D02*
X109293D01*
Y194770D01*
X111228D01*
Y185173D01*
D02*
G37*
G36*
X66718D02*
X64665D01*
X63875Y187351D01*
X60033D01*
X59201Y185173D01*
X57093D01*
X60934Y194770D01*
X62994D01*
X66718Y185173D01*
D02*
G37*
G36*
X51601D02*
X47766D01*
X47579Y185180D01*
X47406Y185194D01*
X47239Y185208D01*
X47087Y185222D01*
X46941Y185236D01*
X46816Y185257D01*
X46698Y185277D01*
X46595Y185291D01*
X46504Y185312D01*
X46421Y185326D01*
X46359Y185347D01*
X46310Y185354D01*
X46269Y185368D01*
X46248Y185375D01*
X46241D01*
X46081Y185430D01*
X45936Y185485D01*
X45797Y185548D01*
X45665Y185610D01*
X45547Y185673D01*
X45437Y185735D01*
X45332Y185797D01*
X45242Y185860D01*
X45159Y185915D01*
X45090Y185971D01*
X45027Y186012D01*
X44972Y186054D01*
X44937Y186089D01*
X44903Y186116D01*
X44889Y186130D01*
X44882Y186137D01*
X44757Y186262D01*
X44646Y186401D01*
X44542Y186539D01*
X44438Y186678D01*
X44348Y186824D01*
X44265Y186962D01*
X44188Y187101D01*
X44119Y187233D01*
X44057Y187358D01*
X44001Y187469D01*
X43959Y187573D01*
X43925Y187663D01*
X43890Y187732D01*
X43869Y187788D01*
X43862Y187822D01*
X43856Y187836D01*
X43800Y188002D01*
X43758Y188169D01*
X43682Y188516D01*
X43627Y188855D01*
X43613Y189022D01*
X43592Y189174D01*
X43585Y189320D01*
X43571Y189452D01*
X43564Y189577D01*
Y189674D01*
X43557Y189757D01*
Y189819D01*
Y189861D01*
Y189875D01*
Y190124D01*
X43571Y190360D01*
X43585Y190589D01*
X43606Y190797D01*
X43634Y190998D01*
X43661Y191185D01*
X43689Y191359D01*
X43717Y191518D01*
X43745Y191657D01*
X43772Y191782D01*
X43800Y191886D01*
X43828Y191976D01*
X43849Y192052D01*
X43862Y192101D01*
X43869Y192135D01*
X43876Y192142D01*
X43939Y192309D01*
X44008Y192475D01*
X44077Y192628D01*
X44154Y192773D01*
X44230Y192912D01*
X44306Y193037D01*
X44376Y193155D01*
X44452Y193266D01*
X44521Y193363D01*
X44584Y193446D01*
X44639Y193522D01*
X44694Y193585D01*
X44736Y193633D01*
X44764Y193668D01*
X44785Y193689D01*
X44792Y193696D01*
X44910Y193813D01*
X45027Y193917D01*
X45152Y194014D01*
X45270Y194105D01*
X45395Y194181D01*
X45513Y194257D01*
X45631Y194320D01*
X45742Y194382D01*
X45846Y194431D01*
X45943Y194472D01*
X46026Y194507D01*
X46102Y194534D01*
X46158Y194555D01*
X46206Y194569D01*
X46234Y194583D01*
X46241D01*
X46366Y194618D01*
X46497Y194646D01*
X46643Y194673D01*
X46789Y194694D01*
X47094Y194722D01*
X47239Y194736D01*
X47385Y194750D01*
X47524Y194756D01*
X47649Y194763D01*
X47766D01*
X47870Y194770D01*
X51601D01*
Y185173D01*
D02*
G37*
G36*
X71530Y194923D02*
X71724Y194916D01*
X71911Y194902D01*
X72091Y194874D01*
X72258Y194853D01*
X72410Y194826D01*
X72556Y194791D01*
X72688Y194763D01*
X72806Y194729D01*
X72910Y194701D01*
X73000Y194666D01*
X73076Y194646D01*
X73132Y194625D01*
X73180Y194604D01*
X73208Y194597D01*
X73215Y194590D01*
X73361Y194528D01*
X73492Y194451D01*
X73617Y194375D01*
X73735Y194299D01*
X73839Y194216D01*
X73936Y194139D01*
X74026Y194056D01*
X74109Y193980D01*
X74179Y193904D01*
X74241Y193841D01*
X74297Y193779D01*
X74338Y193723D01*
X74373Y193682D01*
X74394Y193647D01*
X74408Y193626D01*
X74415Y193619D01*
X74484Y193501D01*
X74546Y193377D01*
X74602Y193259D01*
X74650Y193134D01*
X74692Y193016D01*
X74727Y192905D01*
X74747Y192794D01*
X74775Y192697D01*
X74789Y192600D01*
X74803Y192510D01*
X74810Y192433D01*
X74817Y192371D01*
X74824Y192316D01*
Y192281D01*
Y192253D01*
Y192246D01*
X74817Y192038D01*
X74789Y191837D01*
X74740Y191643D01*
X74685Y191463D01*
X74623Y191296D01*
X74546Y191137D01*
X74463Y190991D01*
X74380Y190859D01*
X74303Y190735D01*
X74220Y190631D01*
X74144Y190534D01*
X74082Y190457D01*
X74026Y190402D01*
X73978Y190353D01*
X73950Y190326D01*
X73943Y190319D01*
X73811Y190215D01*
X73666Y190117D01*
X73506Y190020D01*
X73333Y189930D01*
X73159Y189847D01*
X72972Y189771D01*
X72792Y189701D01*
X72612Y189632D01*
X72445Y189577D01*
X72286Y189521D01*
X72140Y189473D01*
X72008Y189438D01*
X71904Y189410D01*
X71863Y189396D01*
X71828Y189389D01*
X71800Y189375D01*
X71779D01*
X71766Y189369D01*
X71759D01*
X71544Y189313D01*
X71343Y189265D01*
X71162Y189223D01*
X71003Y189181D01*
X70857Y189140D01*
X70732Y189105D01*
X70622Y189077D01*
X70524Y189050D01*
X70448Y189029D01*
X70379Y189008D01*
X70323Y188987D01*
X70275Y188973D01*
X70247Y188966D01*
X70219Y188959D01*
X70212Y188953D01*
X70205D01*
X70115Y188918D01*
X70032Y188883D01*
X69886Y188814D01*
X69762Y188738D01*
X69665Y188675D01*
X69595Y188613D01*
X69547Y188571D01*
X69512Y188543D01*
X69505Y188529D01*
X69436Y188439D01*
X69387Y188342D01*
X69352Y188245D01*
X69332Y188155D01*
X69311Y188072D01*
X69304Y188009D01*
Y187968D01*
Y187961D01*
Y187954D01*
X69311Y187857D01*
X69325Y187760D01*
X69346Y187677D01*
X69380Y187586D01*
X69457Y187434D01*
X69540Y187295D01*
X69588Y187240D01*
X69630Y187184D01*
X69672Y187143D01*
X69706Y187101D01*
X69741Y187073D01*
X69762Y187052D01*
X69776Y187039D01*
X69782Y187032D01*
X69873Y186962D01*
X69977Y186900D01*
X70087Y186851D01*
X70198Y186803D01*
X70316Y186768D01*
X70434Y186734D01*
X70663Y186685D01*
X70767Y186671D01*
X70871Y186657D01*
X70961Y186650D01*
X71038Y186643D01*
X71100Y186637D01*
X71190D01*
X71350Y186643D01*
X71502Y186657D01*
X71648Y186678D01*
X71786Y186706D01*
X71911Y186740D01*
X72022Y186775D01*
X72133Y186817D01*
X72223Y186858D01*
X72313Y186900D01*
X72383Y186942D01*
X72452Y186976D01*
X72501Y187011D01*
X72542Y187039D01*
X72570Y187059D01*
X72591Y187073D01*
X72598Y187080D01*
X72688Y187170D01*
X72778Y187267D01*
X72854Y187372D01*
X72924Y187482D01*
X72986Y187600D01*
X73042Y187718D01*
X73139Y187947D01*
X73173Y188051D01*
X73201Y188148D01*
X73229Y188238D01*
X73250Y188321D01*
X73263Y188384D01*
X73277Y188432D01*
X73284Y188460D01*
Y188474D01*
X75170Y188294D01*
X75129Y188002D01*
X75066Y187725D01*
X74997Y187469D01*
X74907Y187226D01*
X74817Y187011D01*
X74720Y186810D01*
X74623Y186623D01*
X74518Y186463D01*
X74421Y186318D01*
X74331Y186193D01*
X74241Y186082D01*
X74165Y185998D01*
X74102Y185929D01*
X74054Y185881D01*
X74026Y185846D01*
X74012Y185839D01*
X73818Y185693D01*
X73610Y185562D01*
X73388Y185451D01*
X73159Y185354D01*
X72931Y185270D01*
X72695Y185208D01*
X72466Y185153D01*
X72244Y185104D01*
X72036Y185069D01*
X71842Y185042D01*
X71662Y185028D01*
X71509Y185014D01*
X71447Y185007D01*
X71384D01*
X71336Y185000D01*
X71211D01*
X70982Y185007D01*
X70760Y185014D01*
X70552Y185035D01*
X70358Y185056D01*
X70178Y185083D01*
X70004Y185111D01*
X69845Y185139D01*
X69699Y185173D01*
X69574Y185208D01*
X69457Y185236D01*
X69359Y185264D01*
X69283Y185291D01*
X69214Y185312D01*
X69165Y185333D01*
X69138Y185340D01*
X69131Y185347D01*
X68978Y185416D01*
X68833Y185492D01*
X68701Y185576D01*
X68576Y185666D01*
X68458Y185749D01*
X68354Y185839D01*
X68257Y185929D01*
X68167Y186012D01*
X68091Y186096D01*
X68021Y186172D01*
X67966Y186241D01*
X67917Y186297D01*
X67882Y186345D01*
X67855Y186387D01*
X67841Y186408D01*
X67834Y186415D01*
X67751Y186553D01*
X67681Y186685D01*
X67619Y186824D01*
X67564Y186962D01*
X67522Y187094D01*
X67480Y187219D01*
X67453Y187344D01*
X67425Y187462D01*
X67411Y187566D01*
X67397Y187663D01*
X67383Y187746D01*
X67376Y187822D01*
X67369Y187878D01*
Y187926D01*
Y187954D01*
Y187961D01*
X67376Y188127D01*
X67383Y188287D01*
X67404Y188439D01*
X67432Y188585D01*
X67460Y188717D01*
X67494Y188842D01*
X67529Y188959D01*
X67564Y189063D01*
X67598Y189160D01*
X67633Y189244D01*
X67667Y189313D01*
X67695Y189375D01*
X67723Y189424D01*
X67744Y189459D01*
X67751Y189480D01*
X67758Y189486D01*
X67834Y189597D01*
X67910Y189708D01*
X68084Y189902D01*
X68174Y189993D01*
X68264Y190069D01*
X68347Y190145D01*
X68430Y190208D01*
X68513Y190270D01*
X68583Y190319D01*
X68652Y190360D01*
X68708Y190402D01*
X68756Y190429D01*
X68791Y190450D01*
X68812Y190457D01*
X68819Y190464D01*
X68950Y190534D01*
X69103Y190596D01*
X69262Y190665D01*
X69429Y190728D01*
X69776Y190846D01*
X69949Y190894D01*
X70115Y190950D01*
X70275Y190991D01*
X70420Y191033D01*
X70559Y191067D01*
X70677Y191102D01*
X70774Y191123D01*
X70843Y191144D01*
X70871Y191151D01*
X70892D01*
X70899Y191158D01*
X70906D01*
X71155Y191220D01*
X71391Y191282D01*
X71592Y191338D01*
X71779Y191400D01*
X71946Y191456D01*
X72091Y191511D01*
X72216Y191560D01*
X72327Y191608D01*
X72417Y191650D01*
X72494Y191685D01*
X72556Y191719D01*
X72605Y191747D01*
X72646Y191775D01*
X72667Y191789D01*
X72681Y191803D01*
X72688D01*
X72785Y191900D01*
X72854Y191997D01*
X72903Y192094D01*
X72937Y192184D01*
X72958Y192267D01*
X72965Y192330D01*
X72972Y192371D01*
Y192378D01*
Y192385D01*
X72965Y192454D01*
X72958Y192517D01*
X72924Y192635D01*
X72875Y192732D01*
X72820Y192815D01*
X72764Y192884D01*
X72716Y192933D01*
X72681Y192967D01*
X72667Y192974D01*
X72570Y193037D01*
X72473Y193092D01*
X72369Y193141D01*
X72258Y193182D01*
X72036Y193245D01*
X71828Y193286D01*
X71724Y193300D01*
X71634Y193307D01*
X71551Y193314D01*
X71481Y193321D01*
X71426Y193328D01*
X71197D01*
X71051Y193314D01*
X70927Y193300D01*
X70809Y193279D01*
X70698Y193252D01*
X70594Y193224D01*
X70504Y193196D01*
X70420Y193169D01*
X70351Y193134D01*
X70289Y193106D01*
X70233Y193078D01*
X70192Y193051D01*
X70157Y193030D01*
X70136Y193016D01*
X70122Y193009D01*
X70115Y193002D01*
X70039Y192940D01*
X69977Y192863D01*
X69859Y192697D01*
X69769Y192524D01*
X69692Y192350D01*
X69665Y192267D01*
X69644Y192191D01*
X69623Y192121D01*
X69609Y192059D01*
X69595Y192010D01*
X69588Y191976D01*
X69581Y191948D01*
Y191941D01*
X67647Y192024D01*
X67667Y192267D01*
X67702Y192496D01*
X67751Y192711D01*
X67820Y192912D01*
X67889Y193099D01*
X67973Y193272D01*
X68056Y193432D01*
X68146Y193571D01*
X68236Y193702D01*
X68319Y193813D01*
X68396Y193911D01*
X68465Y193987D01*
X68527Y194049D01*
X68569Y194098D01*
X68597Y194125D01*
X68611Y194132D01*
X68791Y194271D01*
X68985Y194396D01*
X69200Y194500D01*
X69415Y194597D01*
X69644Y194673D01*
X69873Y194736D01*
X70094Y194791D01*
X70309Y194833D01*
X70518Y194860D01*
X70705Y194888D01*
X70878Y194909D01*
X71031Y194916D01*
X71100Y194923D01*
X71155D01*
X71204Y194930D01*
X71329D01*
X71530Y194923D01*
D02*
G37*
%LPC*%
G36*
X61988Y192531D02*
X60657Y188973D01*
X63285D01*
X61988Y192531D01*
D02*
G37*
G36*
X49666Y193148D02*
X48585D01*
X48390Y193141D01*
X48210D01*
X48051Y193134D01*
X47905Y193127D01*
X47773Y193120D01*
X47655Y193106D01*
X47558Y193099D01*
X47468Y193092D01*
X47399Y193078D01*
X47336Y193071D01*
X47288Y193064D01*
X47253Y193058D01*
X47225D01*
X47212Y193051D01*
X47205D01*
X47010Y192995D01*
X46830Y192933D01*
X46678Y192857D01*
X46546Y192780D01*
X46442Y192711D01*
X46400Y192683D01*
X46366Y192655D01*
X46338Y192635D01*
X46317Y192614D01*
X46310Y192607D01*
X46303Y192600D01*
X46178Y192461D01*
X46068Y192316D01*
X45977Y192163D01*
X45894Y192010D01*
X45839Y191879D01*
X45811Y191816D01*
X45790Y191768D01*
X45776Y191726D01*
X45762Y191698D01*
X45755Y191678D01*
Y191671D01*
X45721Y191553D01*
X45686Y191428D01*
X45665Y191289D01*
X45638Y191151D01*
X45603Y190866D01*
X45589Y190728D01*
X45582Y190596D01*
X45568Y190464D01*
X45561Y190346D01*
Y190242D01*
X45554Y190145D01*
Y190069D01*
Y190013D01*
Y189979D01*
Y189965D01*
Y189764D01*
X45561Y189570D01*
X45575Y189389D01*
X45582Y189223D01*
X45603Y189063D01*
X45617Y188925D01*
X45638Y188793D01*
X45651Y188675D01*
X45672Y188564D01*
X45693Y188474D01*
X45707Y188391D01*
X45721Y188328D01*
X45735Y188280D01*
X45749Y188238D01*
X45755Y188218D01*
Y188211D01*
X45790Y188093D01*
X45832Y187989D01*
X45873Y187885D01*
X45915Y187794D01*
X45957Y187711D01*
X45998Y187635D01*
X46040Y187566D01*
X46081Y187503D01*
X46116Y187448D01*
X46151Y187406D01*
X46185Y187365D01*
X46206Y187337D01*
X46234Y187309D01*
X46248Y187295D01*
X46255Y187288D01*
X46262Y187281D01*
X46386Y187184D01*
X46518Y187101D01*
X46643Y187032D01*
X46768Y186983D01*
X46879Y186942D01*
X46927Y186921D01*
X46969Y186907D01*
X46997Y186900D01*
X47024Y186893D01*
X47038Y186886D01*
X47045D01*
X47115Y186872D01*
X47198Y186858D01*
X47378Y186838D01*
X47572Y186817D01*
X47766Y186810D01*
X47856Y186803D01*
X47940D01*
X48016Y186796D01*
X49666D01*
Y193148D01*
D02*
G37*
%LPD*%
D11*
X9264Y155758D02*
X8264D01*
X8764D01*
Y154258D01*
X7764D02*
Y155758D01*
X7015D01*
X6765Y155508D01*
Y155008D01*
X7015Y154758D01*
X7764D01*
X6265Y154258D02*
X5765D01*
X6015D01*
Y155758D01*
X6265Y155508D01*
X9518Y180650D02*
X8518D01*
X9018D01*
Y179150D01*
X8019D02*
Y180650D01*
X7269D01*
X7019Y180400D01*
Y179900D01*
X7269Y179650D01*
X8019D01*
X6519Y180400D02*
X6269Y180650D01*
X5769D01*
X5519Y180400D01*
Y180150D01*
X5769Y179900D01*
X6019D01*
X5769D01*
X5519Y179650D01*
Y179400D01*
X5769Y179150D01*
X6269D01*
X6519Y179400D01*
X9518Y130865D02*
X8518D01*
X9018D01*
Y129366D01*
X8019D02*
Y130865D01*
X7269D01*
X7019Y130616D01*
Y130116D01*
X7269Y129866D01*
X8019D01*
X5519Y129366D02*
X6519D01*
X5519Y130366D01*
Y130616D01*
X5769Y130865D01*
X6269D01*
X6519Y130616D01*
X95758Y153670D02*
X94258D01*
Y152920D01*
X94508Y152670D01*
X95008D01*
X95258Y152920D01*
Y153670D01*
Y153170D02*
X95758Y152670D01*
Y151421D02*
X94258D01*
X95008Y152170D01*
Y151171D01*
X95758Y133858D02*
X94258D01*
Y133108D01*
X94508Y132858D01*
X95008D01*
X95258Y133108D01*
Y133858D01*
Y133358D02*
X95758Y132858D01*
X94508Y132359D02*
X94258Y132109D01*
Y131609D01*
X94508Y131359D01*
X94758D01*
X95008Y131609D01*
Y131859D01*
Y131609D01*
X95258Y131359D01*
X95508D01*
X95758Y131609D01*
Y132109D01*
X95508Y132359D01*
X35814Y133858D02*
X34314D01*
Y133108D01*
X34564Y132858D01*
X35064D01*
X35314Y133108D01*
Y133858D01*
Y133358D02*
X35814Y132858D01*
Y131359D02*
Y132359D01*
X34814Y131359D01*
X34564D01*
X34314Y131609D01*
Y132109D01*
X34564Y132359D01*
X35814Y153416D02*
X34314D01*
Y152666D01*
X34564Y152416D01*
X35064D01*
X35314Y152666D01*
Y153416D01*
Y152916D02*
X35814Y152416D01*
Y151917D02*
Y151417D01*
Y151667D01*
X34314D01*
X34564Y151917D01*
X94508Y142510D02*
X94258Y142760D01*
Y143260D01*
X94508Y143510D01*
X95508D01*
X95758Y143260D01*
Y142760D01*
X95508Y142510D01*
X95758Y142010D02*
Y141511D01*
Y141761D01*
X94258D01*
X94508Y142010D01*
X66040Y143231D02*
Y141982D01*
X65790Y141732D01*
X65290D01*
X65040Y141982D01*
Y143231D01*
X64541Y141732D02*
X64041D01*
X64291D01*
Y143231D01*
X64541Y142982D01*
D25*
X63000Y133000D02*
G03*
X63000Y133000I-1000J0D01*
G01*
M02*
