G04*
G04 #@! TF.GenerationSoftware,Altium Limited,Altium Designer,23.5.1 (21)*
G04*
G04 Layer_Physical_Order=1*
G04 Layer_Color=255*
%FSLAX44Y44*%
%MOMM*%
G71*
G04*
G04 #@! TF.SameCoordinates,A6BFF210-3E1A-4D33-989E-14755B46CC80*
G04*
G04*
G04 #@! TF.FilePolarity,Positive*
G04*
G01*
G75*
%ADD14C,0.1500*%
%ADD15O,1.0000X1.8000*%
%ADD16C,1.8796*%
%ADD17C,0.4000*%
G36*
X20000Y197706D02*
X118735D01*
X118753Y197706D01*
X120000Y197706D01*
X121218Y197588D01*
X123455Y197368D01*
X126777Y196360D01*
X129838Y194724D01*
X132522Y192522D01*
X134724Y189838D01*
X136360Y186777D01*
X137368Y183455D01*
X137708Y180008D01*
X137706Y180000D01*
Y115000D01*
X137706Y115000D01*
X137708Y114992D01*
X137368Y111545D01*
X136360Y108223D01*
X134724Y105162D01*
X132522Y102478D01*
X129838Y100276D01*
X126777Y98640D01*
X123455Y97632D01*
X120008Y97292D01*
X120000Y97294D01*
X20000Y97294D01*
X19992Y97292D01*
X16545Y97632D01*
X13223Y98640D01*
X10162Y100276D01*
X7478Y102478D01*
X5276Y105162D01*
X3640Y108223D01*
X2632Y111545D01*
X2292Y114992D01*
X2294Y115000D01*
Y180000D01*
X2292Y180008D01*
X2632Y183455D01*
X3640Y186777D01*
X5276Y189838D01*
X7478Y192522D01*
X10162Y194724D01*
X13223Y196360D01*
X16545Y197368D01*
X19992Y197708D01*
X20000Y197706D01*
D02*
G37*
%LPC*%
G36*
X91270Y180389D02*
Y171270D01*
X96556D01*
Y174000D01*
X96333Y175697D01*
X95678Y177278D01*
X94636Y178636D01*
X93278Y179678D01*
X91697Y180333D01*
X91270Y180389D01*
D02*
G37*
G36*
X88730D02*
X88303Y180333D01*
X86722Y179678D01*
X85364Y178636D01*
X84322Y177278D01*
X83667Y175697D01*
X83444Y174000D01*
Y171270D01*
X88730D01*
Y180389D01*
D02*
G37*
G36*
X96556Y168730D02*
X91270D01*
Y159611D01*
X91697Y159667D01*
X93278Y160322D01*
X94636Y161364D01*
X95678Y162722D01*
X96333Y164303D01*
X96556Y166000D01*
Y168730D01*
D02*
G37*
G36*
X88730D02*
X83444D01*
Y166000D01*
X83667Y164303D01*
X84322Y162722D01*
X85364Y161364D01*
X86722Y160322D01*
X88303Y159667D01*
X88730Y159611D01*
Y168730D01*
D02*
G37*
G36*
X65000Y180556D02*
X63303Y180333D01*
X61722Y179678D01*
X60364Y178636D01*
X59322Y177278D01*
X58667Y175697D01*
X58444Y174000D01*
Y166000D01*
X58667Y164303D01*
X59322Y162722D01*
X60364Y161364D01*
X61722Y160322D01*
X63303Y159667D01*
X65000Y159444D01*
X66697Y159667D01*
X68278Y160322D01*
X69636Y161364D01*
X70678Y162722D01*
X71333Y164303D01*
X71556Y166000D01*
Y174000D01*
X71333Y175697D01*
X70678Y177278D01*
X69636Y178636D01*
X68278Y179678D01*
X66697Y180333D01*
X65000Y180556D01*
D02*
G37*
G36*
X40000D02*
X38303Y180333D01*
X36722Y179678D01*
X35364Y178636D01*
X34322Y177278D01*
X33667Y175697D01*
X33444Y174000D01*
Y166000D01*
X33667Y164303D01*
X34322Y162722D01*
X35364Y161364D01*
X36722Y160322D01*
X38303Y159667D01*
X40000Y159444D01*
X41697Y159667D01*
X43278Y160322D01*
X44636Y161364D01*
X45678Y162722D01*
X46333Y164303D01*
X46556Y166000D01*
Y174000D01*
X46333Y175697D01*
X45678Y177278D01*
X44636Y178636D01*
X43278Y179678D01*
X41697Y180333D01*
X40000Y180556D01*
D02*
G37*
G36*
X106270Y145762D02*
Y143770D01*
X108262D01*
X107967Y144483D01*
X106983Y145467D01*
X106270Y145762D01*
D02*
G37*
G36*
X103730D02*
X103017Y145467D01*
X102033Y144483D01*
X101738Y143770D01*
X103730D01*
Y145762D01*
D02*
G37*
G36*
X46270D02*
Y143770D01*
X48262D01*
X47967Y144483D01*
X46983Y145467D01*
X46270Y145762D01*
D02*
G37*
G36*
X43730D02*
X43017Y145467D01*
X42033Y144483D01*
X41738Y143770D01*
X43730D01*
Y145762D01*
D02*
G37*
G36*
X108262Y141230D02*
X106270D01*
Y139238D01*
X106983Y139533D01*
X107967Y140517D01*
X108262Y141230D01*
D02*
G37*
G36*
X103730D02*
X101738D01*
X102033Y140517D01*
X103017Y139533D01*
X103730Y139238D01*
Y141230D01*
D02*
G37*
G36*
X48262D02*
X46270D01*
Y139238D01*
X46983Y139533D01*
X47967Y140517D01*
X48262Y141230D01*
D02*
G37*
G36*
X43730D02*
X41738D01*
X42033Y140517D01*
X43017Y139533D01*
X43730Y139238D01*
Y141230D01*
D02*
G37*
G36*
X15696Y148500D02*
X14304D01*
X13017Y147967D01*
X12033Y146983D01*
X11500Y145696D01*
Y144304D01*
X12033Y143017D01*
X13017Y142033D01*
X14304Y141500D01*
X15256D01*
X25378Y131378D01*
X25378Y131378D01*
X26122Y130881D01*
X27000Y130706D01*
X82844D01*
X83517Y130033D01*
X84804Y129500D01*
X86196D01*
X87483Y130033D01*
X88467Y131017D01*
X89000Y132304D01*
Y133696D01*
X88467Y134983D01*
X87483Y135967D01*
X86196Y136500D01*
X84804D01*
X83517Y135967D01*
X82844Y135294D01*
X27950D01*
X18500Y144744D01*
Y145696D01*
X17967Y146983D01*
X16983Y147967D01*
X15696Y148500D01*
D02*
G37*
G36*
X21435Y125898D02*
X21270D01*
Y116270D01*
X30898D01*
Y116435D01*
X30155Y119206D01*
X28721Y121692D01*
X26692Y123721D01*
X24207Y125155D01*
X21435Y125898D01*
D02*
G37*
G36*
X18730D02*
X18565D01*
X15793Y125155D01*
X13309Y123721D01*
X11279Y121692D01*
X9845Y119206D01*
X9102Y116435D01*
Y116270D01*
X18730D01*
Y125898D01*
D02*
G37*
G36*
X123035D02*
X120165D01*
X117394Y125155D01*
X114909Y123721D01*
X112879Y121692D01*
X111445Y119206D01*
X110702Y116435D01*
Y113565D01*
X111445Y110794D01*
X112879Y108308D01*
X114909Y106279D01*
X117394Y104845D01*
X120165Y104102D01*
X123035D01*
X125807Y104845D01*
X128292Y106279D01*
X130321Y108308D01*
X131755Y110794D01*
X132498Y113565D01*
Y116435D01*
X131755Y119206D01*
X130321Y121692D01*
X128292Y123721D01*
X125807Y125155D01*
X123035Y125898D01*
D02*
G37*
G36*
X97635D02*
X94765D01*
X91994Y125155D01*
X89508Y123721D01*
X87479Y121692D01*
X86045Y119206D01*
X85302Y116435D01*
Y113565D01*
X86045Y110794D01*
X87479Y108308D01*
X89508Y106279D01*
X91994Y104845D01*
X94765Y104102D01*
X97635D01*
X100407Y104845D01*
X102892Y106279D01*
X104921Y108308D01*
X106355Y110794D01*
X107098Y113565D01*
Y116435D01*
X106355Y119206D01*
X104921Y121692D01*
X102892Y123721D01*
X100407Y125155D01*
X97635Y125898D01*
D02*
G37*
G36*
X72235D02*
X69365D01*
X66593Y125155D01*
X64109Y123721D01*
X62080Y121692D01*
X60645Y119206D01*
X59902Y116435D01*
Y113565D01*
X60645Y110794D01*
X62080Y108308D01*
X64109Y106279D01*
X66593Y104845D01*
X69365Y104102D01*
X72235D01*
X75006Y104845D01*
X77491Y106279D01*
X79521Y108308D01*
X80955Y110794D01*
X81698Y113565D01*
Y116435D01*
X80955Y119206D01*
X79521Y121692D01*
X77491Y123721D01*
X75006Y125155D01*
X72235Y125898D01*
D02*
G37*
G36*
X46835D02*
X43965D01*
X41193Y125155D01*
X38709Y123721D01*
X36679Y121692D01*
X35245Y119206D01*
X34502Y116435D01*
Y113565D01*
X35245Y110794D01*
X36679Y108308D01*
X38709Y106279D01*
X41193Y104845D01*
X43965Y104102D01*
X46835D01*
X49606Y104845D01*
X52091Y106279D01*
X54121Y108308D01*
X55555Y110794D01*
X56298Y113565D01*
Y116435D01*
X55555Y119206D01*
X54121Y121692D01*
X52091Y123721D01*
X49606Y125155D01*
X46835Y125898D01*
D02*
G37*
G36*
X30898Y113730D02*
X21270D01*
Y104102D01*
X21435D01*
X24207Y104845D01*
X26692Y106279D01*
X28721Y108308D01*
X30155Y110794D01*
X30898Y113565D01*
Y113730D01*
D02*
G37*
G36*
X18730D02*
X9102D01*
Y113565D01*
X9845Y110794D01*
X11279Y108308D01*
X13309Y106279D01*
X15793Y104845D01*
X18565Y104102D01*
X18730D01*
Y113730D01*
D02*
G37*
%LPD*%
D14*
X15000Y145000D02*
X27000Y133000D01*
X85500D01*
D15*
X40000Y170000D02*
D03*
X65000D02*
D03*
X90000D02*
D03*
D16*
X20000Y115000D02*
D03*
X45400D02*
D03*
X70800D02*
D03*
X96200D02*
D03*
X121600D02*
D03*
D17*
X15000Y145000D02*
D03*
X85500Y133000D02*
D03*
X105000Y142500D02*
D03*
X45000D02*
D03*
M02*
