G04*
G04 #@! TF.GenerationSoftware,Altium Limited,Altium Designer,23.5.1 (21)*
G04*
G04 Layer_Color=65535*
%FSLAX44Y44*%
%MOMM*%
G71*
G04*
G04 #@! TF.SameCoordinates,A6BFF210-3E1A-4D33-989E-14755B46CC80*
G04*
G04*
G04 #@! TF.FilePolarity,Positive*
G04*
G01*
G75*
%ADD10C,0.3000*%
%ADD11C,0.0200*%
G36*
X73611Y127500D02*
X71161D01*
Y136736D01*
X71142Y136718D01*
X71096Y136681D01*
X71022Y136616D01*
X70920Y136533D01*
X70791Y136431D01*
X70634Y136311D01*
X70458Y136172D01*
X70255Y136034D01*
X70033Y135886D01*
X69792Y135729D01*
X69533Y135571D01*
X69256Y135423D01*
X68960Y135275D01*
X68646Y135128D01*
X68322Y134998D01*
X67989Y134878D01*
Y137106D01*
X67999D01*
X68036Y137125D01*
X68082Y137143D01*
X68156Y137171D01*
X68248Y137208D01*
X68350Y137245D01*
X68470Y137300D01*
X68609Y137365D01*
X68757Y137448D01*
X68914Y137531D01*
X69090Y137624D01*
X69265Y137735D01*
X69459Y137855D01*
X69654Y137985D01*
X69857Y138132D01*
X70070Y138290D01*
X70079Y138299D01*
X70116Y138327D01*
X70181Y138382D01*
X70255Y138447D01*
X70347Y138530D01*
X70449Y138632D01*
X70560Y138743D01*
X70689Y138872D01*
X70809Y139020D01*
X70939Y139177D01*
X71068Y139344D01*
X71198Y139529D01*
X71318Y139713D01*
X71429Y139917D01*
X71530Y140129D01*
X71614Y140342D01*
X73611D01*
Y127500D01*
D02*
G37*
G36*
X96616Y140333D02*
X96746Y140324D01*
X96903Y140314D01*
X97088Y140287D01*
X97291Y140259D01*
X97513Y140213D01*
X97744Y140157D01*
X97994Y140092D01*
X98243Y140009D01*
X98484Y139908D01*
X98733Y139787D01*
X98974Y139658D01*
X99196Y139501D01*
X99408Y139316D01*
X99417Y139307D01*
X99454Y139270D01*
X99510Y139214D01*
X99575Y139131D01*
X99658Y139029D01*
X99750Y138918D01*
X99852Y138770D01*
X99954Y138613D01*
X100055Y138438D01*
X100157Y138253D01*
X100250Y138040D01*
X100333Y137818D01*
X100398Y137578D01*
X100453Y137319D01*
X100490Y137051D01*
X100499Y136773D01*
Y136764D01*
Y136736D01*
Y136690D01*
Y136625D01*
X100490Y136551D01*
X100481Y136459D01*
X100471Y136357D01*
X100462Y136246D01*
X100425Y135997D01*
X100370Y135719D01*
X100287Y135423D01*
X100185Y135128D01*
Y135118D01*
X100166Y135091D01*
X100148Y135054D01*
X100129Y134989D01*
X100092Y134924D01*
X100046Y134841D01*
X100000Y134739D01*
X99944Y134638D01*
X99880Y134517D01*
X99806Y134388D01*
X99639Y134111D01*
X99436Y133815D01*
X99205Y133500D01*
X99196Y133491D01*
X99186Y133473D01*
X99159Y133445D01*
X99122Y133399D01*
X99066Y133334D01*
X99001Y133260D01*
X98927Y133177D01*
X98835Y133084D01*
X98733Y132973D01*
X98613Y132853D01*
X98484Y132715D01*
X98336Y132567D01*
X98179Y132409D01*
X98003Y132243D01*
X97809Y132058D01*
X97596Y131864D01*
X97587Y131855D01*
X97550Y131818D01*
X97485Y131762D01*
X97411Y131688D01*
X97319Y131605D01*
X97208Y131513D01*
X97097Y131402D01*
X96977Y131291D01*
X96727Y131050D01*
X96477Y130819D01*
X96366Y130708D01*
X96274Y130616D01*
X96181Y130523D01*
X96117Y130449D01*
X96108Y130431D01*
X96071Y130394D01*
X96006Y130320D01*
X95941Y130237D01*
X95858Y130135D01*
X95775Y130015D01*
X95691Y129895D01*
X95618Y129774D01*
X100499D01*
Y127500D01*
X91901D01*
Y127519D01*
X91910Y127555D01*
X91919Y127629D01*
X91938Y127722D01*
X91956Y127833D01*
X91984Y127971D01*
X92012Y128119D01*
X92058Y128286D01*
X92104Y128471D01*
X92169Y128665D01*
X92234Y128859D01*
X92308Y129072D01*
X92400Y129284D01*
X92502Y129506D01*
X92613Y129719D01*
X92733Y129941D01*
X92742Y129950D01*
X92770Y129996D01*
X92816Y130061D01*
X92872Y130154D01*
X92955Y130264D01*
X93066Y130403D01*
X93195Y130569D01*
X93343Y130754D01*
X93519Y130967D01*
X93713Y131198D01*
X93944Y131448D01*
X94194Y131725D01*
X94480Y132021D01*
X94785Y132326D01*
X95127Y132659D01*
X95497Y133010D01*
X95507Y133020D01*
X95516Y133029D01*
X95571Y133075D01*
X95654Y133158D01*
X95765Y133260D01*
X95895Y133389D01*
X96043Y133528D01*
X96200Y133685D01*
X96376Y133852D01*
X96718Y134203D01*
X96893Y134369D01*
X97051Y134545D01*
X97208Y134702D01*
X97337Y134850D01*
X97448Y134989D01*
X97531Y135100D01*
X97541Y135109D01*
X97550Y135137D01*
X97578Y135174D01*
X97615Y135229D01*
X97652Y135303D01*
X97689Y135377D01*
X97735Y135470D01*
X97790Y135571D01*
X97883Y135802D01*
X97957Y136052D01*
X98021Y136329D01*
X98031Y136468D01*
X98040Y136607D01*
Y136616D01*
Y136644D01*
Y136681D01*
X98031Y136746D01*
Y136810D01*
X98021Y136884D01*
X97984Y137069D01*
X97929Y137273D01*
X97855Y137485D01*
X97744Y137679D01*
X97670Y137781D01*
X97596Y137864D01*
X97587Y137873D01*
X97578Y137883D01*
X97550Y137901D01*
X97513Y137938D01*
X97467Y137966D01*
X97411Y138003D01*
X97346Y138049D01*
X97282Y138086D01*
X97106Y138169D01*
X96893Y138243D01*
X96653Y138290D01*
X96514Y138299D01*
X96376Y138308D01*
X96302D01*
X96246Y138299D01*
X96181D01*
X96108Y138280D01*
X95932Y138253D01*
X95738Y138197D01*
X95525Y138114D01*
X95433Y138058D01*
X95331Y138003D01*
X95239Y137929D01*
X95146Y137846D01*
X95137Y137837D01*
X95127Y137827D01*
X95100Y137800D01*
X95072Y137753D01*
X95035Y137707D01*
X94998Y137642D01*
X94961Y137568D01*
X94915Y137485D01*
X94869Y137383D01*
X94822Y137273D01*
X94776Y137143D01*
X94739Y137004D01*
X94702Y136847D01*
X94665Y136681D01*
X94647Y136505D01*
X94628Y136311D01*
X92187Y136551D01*
Y136561D01*
Y136579D01*
X92197Y136607D01*
Y136644D01*
X92206Y136690D01*
X92215Y136746D01*
X92243Y136884D01*
X92271Y137051D01*
X92317Y137236D01*
X92372Y137448D01*
X92437Y137670D01*
X92520Y137910D01*
X92613Y138151D01*
X92724Y138391D01*
X92853Y138632D01*
X92992Y138863D01*
X93158Y139075D01*
X93343Y139279D01*
X93546Y139454D01*
X93556Y139464D01*
X93602Y139492D01*
X93667Y139538D01*
X93750Y139593D01*
X93870Y139658D01*
X94000Y139732D01*
X94166Y139815D01*
X94342Y139898D01*
X94536Y139981D01*
X94758Y140065D01*
X94998Y140139D01*
X95248Y140203D01*
X95525Y140259D01*
X95812Y140305D01*
X96117Y140333D01*
X96431Y140342D01*
X96514D01*
X96616Y140333D01*
D02*
G37*
G36*
X121660Y140555D02*
X121780Y140546D01*
X121938Y140527D01*
X122113Y140499D01*
X122307Y140472D01*
X122520Y140416D01*
X122751Y140361D01*
X122982Y140287D01*
X123223Y140185D01*
X123463Y140074D01*
X123703Y139945D01*
X123944Y139787D01*
X124166Y139612D01*
X124378Y139408D01*
X124388Y139399D01*
X124415Y139362D01*
X124461Y139316D01*
X124517Y139242D01*
X124591Y139149D01*
X124665Y139048D01*
X124748Y138927D01*
X124831Y138789D01*
X124915Y138641D01*
X124998Y138475D01*
X125072Y138299D01*
X125146Y138114D01*
X125201Y137920D01*
X125247Y137716D01*
X125275Y137504D01*
X125284Y137282D01*
Y137263D01*
Y137208D01*
X125275Y137125D01*
X125257Y137004D01*
X125229Y136856D01*
X125183Y136699D01*
X125127Y136514D01*
X125053Y136311D01*
X124951Y136108D01*
X124831Y135886D01*
X124683Y135664D01*
X124508Y135433D01*
X124295Y135211D01*
X124175Y135100D01*
X124045Y134998D01*
X123907Y134887D01*
X123759Y134785D01*
X123602Y134684D01*
X123435Y134591D01*
X123444D01*
X123482Y134582D01*
X123537Y134564D01*
X123620Y134545D01*
X123713Y134517D01*
X123814Y134471D01*
X123934Y134425D01*
X124064Y134369D01*
X124203Y134305D01*
X124351Y134231D01*
X124499Y134148D01*
X124637Y134046D01*
X124785Y133944D01*
X124924Y133815D01*
X125063Y133685D01*
X125192Y133537D01*
X125201Y133528D01*
X125220Y133500D01*
X125257Y133454D01*
X125294Y133389D01*
X125340Y133315D01*
X125395Y133214D01*
X125460Y133103D01*
X125525Y132983D01*
X125580Y132844D01*
X125645Y132696D01*
X125700Y132530D01*
X125747Y132354D01*
X125784Y132169D01*
X125821Y131975D01*
X125839Y131771D01*
X125848Y131559D01*
Y131540D01*
Y131485D01*
X125839Y131392D01*
X125830Y131272D01*
X125811Y131133D01*
X125784Y130958D01*
X125747Y130773D01*
X125691Y130569D01*
X125626Y130348D01*
X125543Y130117D01*
X125442Y129876D01*
X125331Y129636D01*
X125183Y129386D01*
X125016Y129146D01*
X124831Y128915D01*
X124609Y128683D01*
X124591Y128674D01*
X124554Y128637D01*
X124480Y128573D01*
X124388Y128498D01*
X124267Y128406D01*
X124129Y128314D01*
X123953Y128203D01*
X123768Y128092D01*
X123555Y127981D01*
X123324Y127879D01*
X123075Y127777D01*
X122797Y127685D01*
X122511Y127611D01*
X122206Y127555D01*
X121882Y127509D01*
X121549Y127500D01*
X121475D01*
X121383Y127509D01*
X121263Y127519D01*
X121115Y127528D01*
X120939Y127555D01*
X120754Y127583D01*
X120541Y127629D01*
X120319Y127676D01*
X120088Y127740D01*
X119848Y127824D01*
X119608Y127925D01*
X119367Y128036D01*
X119127Y128166D01*
X118896Y128323D01*
X118674Y128498D01*
X118665Y128508D01*
X118628Y128545D01*
X118563Y128600D01*
X118489Y128683D01*
X118406Y128776D01*
X118304Y128896D01*
X118193Y129044D01*
X118082Y129201D01*
X117962Y129377D01*
X117851Y129571D01*
X117740Y129793D01*
X117629Y130024D01*
X117537Y130264D01*
X117463Y130533D01*
X117398Y130810D01*
X117352Y131106D01*
X119728Y131402D01*
Y131392D01*
X119737Y131365D01*
Y131318D01*
X119755Y131254D01*
X119765Y131171D01*
X119792Y131087D01*
X119811Y130986D01*
X119848Y130884D01*
X119922Y130662D01*
X120033Y130431D01*
X120162Y130200D01*
X120246Y130098D01*
X120329Y130006D01*
X120338Y129996D01*
X120357Y129987D01*
X120384Y129959D01*
X120421Y129932D01*
X120467Y129895D01*
X120523Y129858D01*
X120671Y129774D01*
X120847Y129682D01*
X121050Y129608D01*
X121281Y129552D01*
X121401Y129543D01*
X121531Y129534D01*
X121605D01*
X121660Y129543D01*
X121725Y129552D01*
X121799Y129562D01*
X121974Y129608D01*
X122178Y129673D01*
X122280Y129719D01*
X122390Y129774D01*
X122501Y129839D01*
X122603Y129922D01*
X122705Y130006D01*
X122807Y130107D01*
X122816Y130117D01*
X122825Y130135D01*
X122853Y130163D01*
X122890Y130209D01*
X122927Y130274D01*
X122973Y130338D01*
X123019Y130422D01*
X123075Y130514D01*
X123121Y130625D01*
X123167Y130736D01*
X123213Y130865D01*
X123250Y131004D01*
X123287Y131152D01*
X123315Y131309D01*
X123324Y131485D01*
X123334Y131660D01*
Y131670D01*
Y131698D01*
Y131753D01*
X123324Y131818D01*
X123315Y131892D01*
X123306Y131984D01*
X123297Y132086D01*
X123269Y132188D01*
X123213Y132428D01*
X123121Y132668D01*
X123065Y132788D01*
X123001Y132909D01*
X122927Y133029D01*
X122834Y133131D01*
X122825Y133140D01*
X122816Y133158D01*
X122788Y133177D01*
X122742Y133214D01*
X122696Y133260D01*
X122640Y133306D01*
X122492Y133408D01*
X122317Y133500D01*
X122113Y133593D01*
X122002Y133630D01*
X121882Y133648D01*
X121753Y133667D01*
X121623Y133676D01*
X121540D01*
X121494Y133667D01*
X121438D01*
X121309Y133658D01*
X121142Y133630D01*
X120948Y133602D01*
X120736Y133556D01*
X120504Y133491D01*
X120772Y135488D01*
X120939D01*
X121022Y135497D01*
X121115Y135507D01*
X121226Y135516D01*
X121336Y135534D01*
X121586Y135581D01*
X121836Y135655D01*
X121965Y135710D01*
X122085Y135765D01*
X122196Y135830D01*
X122298Y135913D01*
X122307Y135923D01*
X122317Y135932D01*
X122344Y135960D01*
X122381Y135997D01*
X122418Y136043D01*
X122465Y136098D01*
X122511Y136163D01*
X122566Y136237D01*
X122659Y136413D01*
X122742Y136625D01*
X122779Y136736D01*
X122807Y136866D01*
X122816Y136995D01*
X122825Y137134D01*
Y137143D01*
Y137162D01*
Y137199D01*
X122816Y137245D01*
Y137300D01*
X122807Y137356D01*
X122779Y137504D01*
X122733Y137670D01*
X122659Y137837D01*
X122566Y138003D01*
X122437Y138160D01*
X122418Y138179D01*
X122363Y138225D01*
X122280Y138280D01*
X122159Y138354D01*
X122011Y138428D01*
X121836Y138484D01*
X121642Y138530D01*
X121411Y138548D01*
X121346D01*
X121309Y138539D01*
X121253D01*
X121189Y138530D01*
X121041Y138493D01*
X120874Y138438D01*
X120689Y138364D01*
X120504Y138253D01*
X120412Y138179D01*
X120329Y138105D01*
X120319Y138095D01*
X120310Y138086D01*
X120292Y138058D01*
X120255Y138021D01*
X120227Y137975D01*
X120181Y137920D01*
X120144Y137855D01*
X120098Y137781D01*
X120051Y137698D01*
X120005Y137605D01*
X119959Y137504D01*
X119913Y137383D01*
X119876Y137263D01*
X119839Y137134D01*
X119811Y136986D01*
X119792Y136838D01*
X117537Y137217D01*
Y137226D01*
X117546Y137273D01*
X117564Y137328D01*
X117583Y137411D01*
X117601Y137513D01*
X117638Y137624D01*
X117666Y137753D01*
X117712Y137883D01*
X117814Y138179D01*
X117934Y138493D01*
X118073Y138798D01*
X118156Y138937D01*
X118239Y139075D01*
X118249Y139085D01*
X118258Y139103D01*
X118286Y139140D01*
X118332Y139186D01*
X118378Y139251D01*
X118433Y139316D01*
X118507Y139390D01*
X118591Y139473D01*
X118674Y139556D01*
X118776Y139649D01*
X118886Y139741D01*
X119007Y139824D01*
X119136Y139917D01*
X119265Y140009D01*
X119571Y140166D01*
X119580Y140176D01*
X119608Y140185D01*
X119654Y140203D01*
X119719Y140231D01*
X119802Y140259D01*
X119894Y140296D01*
X120005Y140333D01*
X120125Y140370D01*
X120264Y140407D01*
X120412Y140435D01*
X120569Y140472D01*
X120736Y140499D01*
X121096Y140546D01*
X121290Y140564D01*
X121568D01*
X121660Y140555D01*
D02*
G37*
D10*
X45400Y127500D02*
Y137500D01*
X40400Y132500D02*
X50400D01*
X15000D02*
X25000D01*
D11*
X69326Y100750D02*
X68826D01*
X69076D01*
Y99500D01*
X68826Y99250D01*
X68576D01*
X68326Y99500D01*
X70825Y99250D02*
X69826D01*
X70825Y100250D01*
Y100500D01*
X70575Y100750D01*
X70075D01*
X69826Y100500D01*
X120000Y170664D02*
X119500D01*
X119750D01*
Y169414D01*
X119500Y169164D01*
X119250D01*
X119000Y169414D01*
X120500Y169164D02*
X121000D01*
X120750D01*
Y170664D01*
X120500Y170414D01*
M02*
